<svg version="1.1" xmlns="http://www.w3.org/2000/svg" xmlns:xlink="http://www.w3.org/1999/xlink" width="512.000000pt" height="512.000000pt" viewBox="0,0,256,256"><g fill="#ffffff" fill-rule="nonzero" stroke="none" stroke-width="1" stroke-linecap="butt" stroke-linejoin="miter" stroke-miterlimit="10" stroke-dasharray="" stroke-dashoffset="0" font-family="none" font-weight="none" font-size="none" text-anchor="none" style="mix-blend-mode: normal"><g transform="scale(0.5,0.5)"><g transform="translate(0,512) scale(0.1,-0.1)"><path d="M2003,4668l-149,-453l700,-3c384,-1 701,-1 702,1c2,1 -40,135 -92,297c-52,162 -117,366 -145,453l-50,157h-409h-409z"></path><path d="M1810,3805v-106l376,-186l376,-187l374,187l374,187v105v105h-750h-750z"></path><path d="M1810,1680v-1680h750h750v1680c0,924 -2,1680 -5,1680c-3,0 -171,-83 -374,-185l-370,-184l-371,184c-204,102 -373,185 -376,185c-2,0 -4,-756 -4,-1680zM2710,1960v-150h-150h-150v150v150h150h150z"></path></g></g></g></svg>